<svg width="22" height="34" viewBox="0 0 44 34" fill="none" xmlns="http://www.w3.org/2000/svg">
<path d="M26 11.8943V9.36809C27.1 8.87688 28.225 8.50847 29.375 8.26287C30.525 8.01726 31.7333 7.89446 33 7.89446C33.8667 7.89446 34.7167 7.96463 35.55 8.10498C36.3833 8.24533 37.2 8.42076 38 8.63128V10.947C37.2 10.6312 36.3917 10.3944 35.575 10.2365C34.7583 10.0786 33.9 9.99965 33 9.99965C31.7333 9.99965 30.5167 10.1663 29.35 10.4996C28.1833 10.833 27.0667 11.2979 26 11.8943ZM26 23.4729V20.894C27.1 20.4203 28.225 20.0651 29.375 19.8283C30.525 19.5914 31.7333 19.473 33 19.473C33.8667 19.473 34.7167 19.5432 35.55 19.6835C36.3833 19.8239 37.2 19.9993 38 20.2098V22.5255C37.2 22.2097 36.3917 21.9729 35.575 21.815C34.7583 21.6571 33.9 21.5782 33 21.5782C31.7333 21.5782 30.5167 21.7361 29.35 22.0519C28.1833 22.3676 27.0667 22.8413 26 23.4729ZM26 17.6836V15.1574C27.1 14.6662 28.225 14.2977 29.375 14.0521C30.525 13.8065 31.7333 13.6837 33 13.6837C33.8667 13.6837 34.7167 13.7539 35.55 13.8943C36.3833 14.0346 37.2 14.21 38 14.4205V16.7363C37.2 16.4205 36.3917 16.1836 35.575 16.0258C34.7583 15.8679 33.9 15.7889 33 15.7889C31.7333 15.7889 30.5167 15.9556 29.35 16.2889C28.1833 16.6222 27.0667 17.0871 26 17.6836ZM10.4 26.3149C12.1855 26.3149 13.9236 26.5342 15.6142 26.9727C17.3047 27.4113 18.9667 28.0692 20.6 28.9464V6.47346C19.1 5.42086 17.473 4.6051 15.7191 4.02618C13.9651 3.44725 12.1921 3.15778 10.4 3.15778C9.13333 3.15778 7.89167 3.32445 6.675 3.65777C5.45833 3.99109 4.23333 4.40335 3 4.89457V27.7359C4.03333 27.2447 5.20833 26.885 6.525 26.657C7.84167 26.4289 9.13333 26.3149 10.4 26.3149ZM23.6 28.9464C25.2667 28.0692 26.9 27.4113 28.5 26.9727C30.1 26.5342 31.8 26.3149 33.6 26.3149C34.8667 26.3149 36.175 26.4201 37.525 26.6306C38.875 26.8412 40.0333 27.1219 41 27.4727V4.89457C39.8667 4.2981 38.6696 3.85951 37.4089 3.57882C36.1481 3.29813 34.8785 3.15778 33.6 3.15778C31.8 3.15778 30.0583 3.44725 28.375 4.02618C26.6917 4.6051 25.1 5.42086 23.6 6.47346V28.9464ZM22.1 33.683C20.4 32.3497 18.55 31.3235 16.55 30.6042C14.55 29.8849 12.5 29.5253 10.4 29.5253C9.1821 29.5253 7.98597 29.6832 6.8116 29.999C5.6372 30.3147 4.46667 30.7007 3.3 31.1568C2.53 31.5428 1.7875 31.4901 1.0725 30.9989C0.3575 30.5077 0 29.806 0 28.8937V4.52616C0 3.99986 0.116667 3.51742 0.35 3.07884C0.583333 2.64026 0.933333 2.29817 1.4 2.05256C2.8 1.35083 4.25658 0.833304 5.76975 0.499983C7.28288 0.166661 8.8263 0 10.4 0C12.5 0 14.5417 0.298235 16.525 0.894706C18.5083 1.49118 20.3667 2.40342 22.1 3.63145C23.8 2.40342 25.625 1.49118 27.575 0.894706C29.525 0.298235 31.5333 0 33.6 0C35.1623 0 36.6945 0.166661 38.1967 0.499983C39.6989 0.833304 41.15 1.35083 42.55 2.05256C43.0167 2.29817 43.375 2.64026 43.625 3.07884C43.875 3.51742 44 3.99986 44 4.52616V28.8937C44 29.8724 43.625 30.6171 42.875 31.1277C42.125 31.6383 41.3833 31.648 40.65 31.1568C39.5167 30.6656 38.3628 30.2709 37.1884 29.9726C36.014 29.6744 34.8179 29.5253 33.6 29.5253C31.5 29.5253 29.4833 29.8937 27.55 30.6305C25.6167 31.3673 23.8 32.3848 22.1 33.683Z" fill="#4839F0"/>
</svg>
