<svg width="25" height="40" viewBox="0 0 45 43" fill="none" xmlns="http://www.w3.org/2000/svg">
<path d="M21.75 42.1038L30.8 16.8415H34.9L44.2 42.1038H39.85L37.8 35.4724H28.2L25.85 42.1038H21.75ZM29.3 31.7884H36.4L32.9 21.5782H32.8L29.3 31.7884ZM6 35.7882L3.25 32.8936L13.45 22.1571C12.1833 20.6133 11.0583 19.0607 10.075 17.4994C9.09167 15.938 8.23333 14.3153 7.5 12.6311H11.85C12.4167 13.789 13.0417 14.8854 13.725 15.9205C14.4083 16.9555 15.1833 18.0169 16.05 19.1046C17.55 17.4555 18.8 15.7451 19.8 13.9732C20.8 12.2013 21.65 10.3505 22.35 8.42076H0V4.21038H14V0H18V4.21038H32V8.42076H26.35C25.6167 10.8417 24.6417 13.2188 23.425 15.5521C22.2083 17.8853 20.7167 20.1046 18.95 22.2097L23.85 27.4201L22.35 31.6831L16 25.2623L6 35.7882Z" fill="#4839F0"/>
</svg>
