<svg width="134" height="34" viewBox="0 0 134 34" fill="none" xmlns="http://www.w3.org/2000/svg">
<path d="M25.752 34H15.72L6.12 8.22396C6.44 10.752 6.68 12.992 6.84 14.944C7.032 16.864 7.128 19.152 7.128 21.808V34H0.119995V0.735962H9.912L19.752 26.56C19.048 22.176 18.696 18.048 18.696 14.176V0.735962H25.752V34Z" fill="black"/>
<path d="M65.6734 21.28H62.6014V34H54.7294V0.735962H65.6254C70.1694 0.735962 73.5774 1.56796 75.8494 3.23196C78.1534 4.89596 79.3054 7.43996 79.3054 10.864C79.3054 13.008 78.7934 14.8 77.7694 16.24C76.7454 17.648 75.1294 18.848 72.9214 19.84L81.3694 34H72.4894L65.6734 21.28ZM62.6014 15.856H65.9134C67.6734 15.856 68.9854 15.456 69.8494 14.656C70.7454 13.856 71.1934 12.592 71.1934 10.864C71.1934 9.26396 70.7134 8.09596 69.7534 7.35996C68.8254 6.62396 67.3854 6.25596 65.4334 6.25596H62.6014V15.856Z" fill="black"/>
<path d="M124.656 34L122.928 26.848H113.232L111.552 34H103.392L113.424 0.735962H122.976L133.008 34H124.656ZM114.576 21.136H121.584L118.08 6.44796L114.576 21.136Z" fill="black"/>
</svg>
